<svg width="1920" height="68" viewBox="0 0 1920 68" fill="none" xmlns="http://www.w3.org/2000/svg">
<path d="M0.844238 258.582C62.8911 213.964 131.357 185.966 206.96 213.146C274.275 237.359 326.603 293.611 378.343 340.479C436.656 393.304 510.314 487.091 599.829 468.656C650.213 458.275 694.536 419.717 732.184 386.887C815.28 314.399 888.119 230.43 962.826 149.658C1032.75 74.0252 1110.25 19.6146 1175.46 124.882C1219.38 195.733 1253.47 307.802 1353.06 311.739C1441.45 315.242 1507.87 244.672 1587.54 218.643C1709.74 178.73 1833.71 296.04 1919.05 364.948" stroke="#666666" stroke-miterlimit="10"/>
<path d="M0.844238 233.984C64.5279 184.381 135.475 151.448 215.911 180.034C283.789 204.146 340.005 259.119 390.184 308.543C442.359 359.962 512.386 460.96 597.809 443.726C645.61 434.087 687.656 395.452 722.9 364.105C803.489 292.384 875.459 210.614 948.274 131.274C1014.95 58.6328 1093.26 -7.59073 1159.4 97.1907C1202.68 165.741 1235.54 275.15 1333.27 276.506C1420.89 277.707 1493.96 214.117 1575.78 192.333C1703.12 158.403 1827.57 269.627 1919.03 340.684" stroke="#666666" stroke-miterlimit="10"/>
<path d="M0.844238 206.574C71.1009 151.32 146.064 121.609 231.947 159.962C302.971 191.693 365.171 251.729 420.134 304.887C469.444 352.599 530.544 433.115 608.295 408.032C655.738 392.716 696.992 351.806 732.388 318.924C803.336 253.033 869.27 181.67 936.202 111.765C999.988 45.1067 1077.38 -19.736 1145.95 73.207C1194.72 139.328 1225.77 245.081 1323.14 249.914C1409.87 254.209 1493.73 197.012 1577.34 181.67C1703.78 158.454 1821.38 245.593 1919.05 312.737" stroke="#666666" stroke-miterlimit="10"/>
<path d="M0.844238 176.122C76.3951 118.49 153.378 93.1509 241.64 138.664C309.263 173.514 371.668 229.638 427.295 280.852C479.137 328.59 542.795 410.845 621.134 374.435C662.03 355.437 695.687 319.257 727.81 288.651C795.382 224.217 859.296 155.897 925.281 89.8781C993.543 21.5835 1070.88 -31.3697 1141.7 59.4255C1190.45 121.942 1225.57 220.356 1318 224.447C1403.04 228.232 1487.51 187.5 1570.51 173.949C1698.62 153.033 1812.35 218.336 1919.05 281.261" stroke="#666666" stroke-miterlimit="10"/>
<path d="M0.844238 143.189C87.9809 80.3408 171.102 66.1244 263.891 124.601C330.567 166.61 392.205 223.527 451.873 274.844C501.695 317.697 557.731 384.969 627.451 346.002C664.792 325.138 695.866 287.935 725.611 257.84C788.937 193.739 850.6 128.078 915.767 65.8176C983.287 1.30724 1060.58 -45.2538 1132.45 36.26C1186.1 97.114 1223.26 194.174 1315.47 202.969C1396.72 210.717 1485.26 178.96 1565.19 166.585C1692.91 146.82 1805.29 191.949 1919 247.05" stroke="#666666" stroke-miterlimit="10"/>
<path d="M0.844238 108.39C95.2445 44.9022 182.049 38.1009 276.654 104.529C348.036 154.644 412.18 217.978 480.058 272.9C526.734 310.64 578.371 362.391 636.709 319.027C675.278 290.364 706.762 247.178 738.782 211.995C792.926 152.547 848.426 93.8922 907.992 39.8395C980.985 -26.4095 1060.14 -57.7059 1133.65 22.1459C1187.46 80.5964 1228.69 171.826 1317.1 181.721C1400.79 191.08 1491.27 169.116 1574.16 157.738C1696.06 141.016 1804.55 168.247 1919.03 210.614" stroke="#666666" stroke-miterlimit="10"/>
<path d="M0.844238 72.261C108.467 4.98918 199.952 12.1485 298.751 91.0031C373.714 150.834 437.602 220.458 515.736 276.915C569.343 315.626 607.988 337.487 656.914 283.537C740.061 191.847 807.402 87.3467 904.82 8.2876C976.33 -49.7283 1055 -71.3596 1126.26 -3.83208C1186.46 53.2122 1226.97 140.786 1313.88 161.343C1394.11 180.29 1494.8 161.599 1575.47 150.604C1694.52 134.368 1801.97 143.905 1919.05 172.747" stroke="#666666" stroke-miterlimit="10"/>
<path d="M0.844238 35.4161C121.357 -34.8728 219.492 -12.0398 321.104 77.9372C393.893 142.396 454.431 217.032 537.041 269.985C597.681 308.876 629.599 315.754 671.083 253.826C736.813 155.718 802.978 55.4366 898.733 -16.9235C976.151 -75.4507 1054.59 -88.5931 1130.25 -21.1168C1193.24 35.0837 1238.07 125.495 1327.15 145.388C1406.16 163.031 1498.36 154.644 1578 143.803C1693.63 128.052 1802.25 120.944 1919.05 133.959" stroke="#666666" stroke-miterlimit="10"/>
<path d="M0.844238 -1.55645C132.201 -74.0443 234.965 -38.3245 339.084 60.8573C412.768 131.044 473.51 216.777 564.228 266.534C631.569 303.481 655.201 284.279 687.324 220.944C738.424 120.228 803.054 18.4384 897.71 -47.1714C977.839 -102.733 1058.89 -104.446 1134.16 -40.6002C1199.81 15.1145 1247.64 103.174 1335.59 127.873C1524.24 180.852 1729.54 101.665 1919.05 95.0941" stroke="#666666" stroke-miterlimit="10"/>
<path d="M0.844238 -38.0944C66.1904 -72.8937 127.623 -93.5534 200.745 -68.2146C261.231 -47.248 310.772 -3.24394 355.146 41.5784C428.344 115.575 490.927 215.14 588.448 259.119C661.595 292.103 678.91 247.664 703.59 185.659C743.821 84.5086 804.563 -19.1223 899.475 -78.3399C1106.33 -207.437 1180.99 53.7748 1345.57 110.41C1537.77 176.557 1731.1 93.0997 1919.05 56.7152" stroke="#666666" stroke-miterlimit="10"/>
<path d="M0.844238 -73.6096C69.0037 -109.662 131.818 -129.759 206.269 -102.375C268.725 -79.4137 319.212 -32.4948 364.455 15.0378C435.607 89.7758 509.189 219.155 615.328 248.917C689.626 269.755 701.339 200.259 720.163 144.314C753.105 46.3854 809.883 -61.5922 904.872 -113.395C1102.06 -220.938 1201.37 20.8675 1350.25 89.2133C1545.57 178.883 1734.7 86.9376 1919.03 19.4868" stroke="#666666" stroke-miterlimit="10"/>
<path d="M0.844238 -107.489C69.6687 -144.921 131.664 -165.249 207.42 -138.734C270.234 -116.744 321.565 -67.6777 366.22 -19.8638C438.676 57.7378 516.35 205.143 629.011 227.132C705.585 242.09 716.327 165.613 733.053 108.185C761.775 9.66828 813.489 -99.3832 912.749 -145.203C1110.22 -236.356 1216.72 -4.21567 1362.37 70.8547C1438.2 109.924 1536.39 129.944 1620.87 116.342C1727.95 99.1084 1825.88 35.6719 1919.05 -15.7984" stroke="#666666" stroke-miterlimit="10"/>
<path d="M0.844238 -139.194C74.1444 -181.562 144.989 -205.98 226.141 -169.365C287.037 -141.879 335.35 -91.3544 379.008 -42.3132C444.431 31.1719 526.887 185.992 636.94 197.6C719.78 206.345 730.24 115.907 747.99 54.8486C775.433 -39.5262 824.845 -140.702 924.309 -177.113C1120.3 -248.884 1233.62 -33.6709 1375.03 50.4253C1446.49 92.9208 1539.89 122.018 1623.47 111.612C1735.45 97.651 1832.35 16.6487 1919 -48.6799" stroke="#666666" stroke-miterlimit="10"/>
<path d="M0.844238 -168.112C70.0523 -212.193 138.186 -242.876 219.952 -209.866C285.477 -183.403 337.652 -127.228 382.665 -74.7347C447.014 0.310117 527.936 154.388 642.259 157.099C723.769 159.016 738.859 67.2751 758.092 6.01199C787.837 -88.6441 834.871 -180.462 939.194 -207.233C1138.97 -258.524 1249.89 -61.7456 1392.83 32.6548C1462.81 78.8834 1556.13 117.007 1641.38 104.708C1752.86 88.5996 1842.43 -4.03661 1919.03 -78.3399" stroke="#666666" stroke-miterlimit="10"/>
<path d="M0.844238 -193.656C64.3745 -239.705 130.36 -278.289 211.154 -251.237C274.122 -230.168 323.713 -178.57 366.092 -129.631C435.505 -49.4982 505.327 93.0485 624.817 102.151C715.662 109.055 739.268 20.7908 765.407 -49.0379C801.059 -144.308 850.753 -224.978 959.936 -239.731C1153.49 -265.888 1265.03 -99.511 1399.51 5.2193C1466.93 57.7123 1558.21 107.981 1646.42 99.3896C1763.43 87.9859 1849.54 -20.7843 1919.03 -104.165" stroke="#666666" stroke-miterlimit="10"/>
<path d="M0.844238 -213.804C64.0676 -257.91 129.26 -294.218 208.443 -268.445C270.106 -248.373 319.186 -199.051 361.054 -151.595C428.497 -75.1949 499.879 71.4684 615.942 75.4827C705.687 78.5766 736.404 -0.891661 768.578 -70.7459C809.832 -160.263 865.664 -242.211 971.548 -256.504C1158.33 -281.715 1275 -126.282 1407.56 -26.8697C1472.6 21.8903 1564.34 71.4939 1647.87 69.8575C1764.65 67.5563 1851.15 -43.4894 1919.03 -124.543" stroke="#666666" stroke-miterlimit="10"/>
<path d="M0.844238 -227.586C63.0701 -270.158 127.316 -305.469 204.939 -281.996C264.914 -263.868 313.278 -217.69 354.481 -172.485C420.85 -99.6388 491.925 45.4904 604.228 46.1808C692.286 46.7177 729.78 -23.3411 768.22 -91.5846C815.177 -174.939 876.815 -254.919 978.939 -268.931C1158.97 -293.605 1280.58 -154.203 1413.22 -61.4132C1477.62 -16.3608 1568.36 33.9077 1648.05 41.0158C1764.24 51.3713 1852.15 -60.774 1919 -138.913" stroke="#666666" stroke-miterlimit="10"/>
<path d="M0.844238 -236.126C60.5381 -276.908 124.35 -312.168 198.903 -293.247C262.459 -277.138 312.946 -229.094 356.22 -182.584C422.001 -111.886 487.961 19.4356 597.86 14.5519C681.007 10.87 723.386 -52.2341 766.814 -114.341C820.139 -190.639 884.513 -262.18 982.162 -276.039C1159.48 -301.224 1283.7 -180.718 1421.66 -94.7552C1485.39 -55.0211 1566.26 -7.89758 1639.69 11.1001C1758.72 41.8851 1849.36 -69.621 1919.03 -148.373" stroke="#666666" stroke-miterlimit="10"/>
<path d="M0.844238 -240.524C58.9013 -280.692 121.357 -316.719 194.683 -301.812C255.733 -289.386 305.35 -246.635 347.882 -203.704C414.584 -136.407 476.682 -15.5426 583.154 -20.2729C663.922 -23.8525 712.491 -76.9847 761.903 -134.234C821.111 -202.809 889.449 -267.959 983.338 -281.613C1153.16 -306.312 1283.29 -209.969 1422.86 -133.313C1492.12 -95.2665 1564.96 -48.7566 1637.67 -17.9717C1754.73 31.6065 1846.75 -75.6807 1919 -153.947" stroke="#666666" stroke-miterlimit="10"/>
</svg>
