<svg width="55" height="24" viewBox="0 0 55 24" fill="none" xmlns="http://www.w3.org/2000/svg">
<g clip-path="url(#clip0_139_6874)">
<path d="M12 24.0132C18.6274 24.0132 24 18.6407 24 12.0132C24 5.38582 18.6274 0.0133057 12 0.0133057C5.37258 0.0133057 0 5.38582 0 12.0132C0 18.6407 5.37258 24.0132 12 24.0132Z" fill="#666666"/>
<path d="M9.53674e-07 36C6.62742 36 12 30.6274 12 24C12 17.3726 6.62742 12 9.53674e-07 12C-6.62742 12 -12 17.3726 -12 24C-12 30.6274 -6.62742 36 9.53674e-07 36Z" fill="#141414"/>
<path d="M24 36C30.6274 36 36 30.6274 36 24C36 17.3726 30.6274 12 24 12C17.3726 12 12 17.3726 12 24C12 30.6274 17.3726 36 24 36Z" fill="#141414"/>
<path d="M9.53674e-07 12C6.62742 12 12 6.62742 12 9.53674e-07C12 -6.62742 6.62742 -12 9.53674e-07 -12C-6.62742 -12 -12 -6.62742 -12 9.53674e-07C-12 6.62742 -6.62742 12 9.53674e-07 12Z" fill="#141414"/>
<path d="M24 12C30.6274 12 36 6.62742 36 9.53674e-07C36 -6.62742 30.6274 -12 24 -12C17.3726 -12 12 -6.62742 12 9.53674e-07C12 6.62742 17.3726 12 24 12Z" fill="#141414"/>
</g>
<g clip-path="url(#clip1_139_6874)">
<path d="M35.9998 19.2081C39.9763 19.2081 43.1998 15.9845 43.1998 12.0081C43.1998 8.03162 39.9763 4.80811 35.9998 4.80811C32.0234 4.80811 28.7998 8.03162 28.7998 12.0081C28.7998 15.9845 32.0234 19.2081 35.9998 19.2081Z" fill="#333333"/>
<path d="M28.7996 26.4001C32.7761 26.4001 35.9996 23.1766 35.9996 19.2001C35.9996 15.2237 32.7761 12.0001 28.7996 12.0001C24.8232 12.0001 21.5996 15.2237 21.5996 19.2001C21.5996 23.1766 24.8232 26.4001 28.7996 26.4001Z" fill="#141414"/>
<path d="M43.1995 26.4001C47.176 26.4001 50.3995 23.1766 50.3995 19.2001C50.3995 15.2237 47.176 12.0001 43.1995 12.0001C39.2231 12.0001 35.9995 15.2237 35.9995 19.2001C35.9995 23.1766 39.2231 26.4001 43.1995 26.4001Z" fill="#141414"/>
<path d="M28.7996 12.0001C32.7761 12.0001 35.9996 8.77655 35.9996 4.8001C35.9996 0.823647 32.7761 -2.3999 28.7996 -2.3999C24.8232 -2.3999 21.5996 0.823647 21.5996 4.8001C21.5996 8.77655 24.8232 12.0001 28.7996 12.0001Z" fill="#141414"/>
<path d="M43.1995 12.0001C47.176 12.0001 50.3995 8.77655 50.3995 4.8001C50.3995 0.823647 47.176 -2.3999 43.1995 -2.3999C39.2231 -2.3999 35.9995 0.823647 35.9995 4.8001C35.9995 8.77655 39.2231 12.0001 43.1995 12.0001Z" fill="#141414"/>
</g>
<g clip-path="url(#clip2_139_6874)">
<path d="M51.36 15.3638C53.2157 15.3638 54.72 13.8595 54.72 12.0038C54.72 10.1481 53.2157 8.6438 51.36 8.6438C49.5043 8.6438 48 10.1481 48 12.0038C48 13.8595 49.5043 15.3638 51.36 15.3638Z" fill="#333333"/>
<path d="M48.0001 18.72C49.8558 18.72 51.3601 17.2157 51.3601 15.36C51.3601 13.5043 49.8558 12 48.0001 12C46.1445 12 44.6401 13.5043 44.6401 15.36C44.6401 17.2157 46.1445 18.72 48.0001 18.72Z" fill="#141414"/>
<path d="M54.7204 18.72C56.576 18.72 58.0804 17.2157 58.0804 15.36C58.0804 13.5043 56.576 12 54.7204 12C52.8647 12 51.3604 13.5043 51.3604 15.36C51.3604 17.2157 52.8647 18.72 54.7204 18.72Z" fill="#141414"/>
<path d="M48.0001 12C49.8558 12 51.3601 10.4957 51.3601 8.64003C51.3601 6.78435 49.8558 5.28003 48.0001 5.28003C46.1445 5.28003 44.6401 6.78435 44.6401 8.64003C44.6401 10.4957 46.1445 12 48.0001 12Z" fill="#141414"/>
<path d="M54.7204 12C56.576 12 58.0804 10.4957 58.0804 8.64003C58.0804 6.78435 56.576 5.28003 54.7204 5.28003C52.8647 5.28003 51.3604 6.78435 51.3604 8.64003C51.3604 10.4957 52.8647 12 54.7204 12Z" fill="#141414"/>
</g>
<defs>
<clipPath id="clip0_139_6874">
<rect width="24" height="24" fill="white"/>
</clipPath>
<clipPath id="clip1_139_6874">
<rect width="14.4" height="14.4" fill="white" transform="translate(28.7998 4.80005)"/>
</clipPath>
<clipPath id="clip2_139_6874">
<rect width="6.72" height="6.72" fill="white" transform="translate(48 8.64001)"/>
</clipPath>
</defs>
</svg>
