<svg width="690" height="622" viewBox="0 0 690 622" fill="none" xmlns="http://www.w3.org/2000/svg">
<g clip-path="url(#clip0_139_6387)">
<path d="M-616.154 764.072C-425.448 718.75 -250.53 756.582 -65.7444 806.931C20.0617 830.297 105.817 844.429 193.186 820.191C239.421 807.367 282.452 786.232 323.766 762.148C388.505 724.419 444.351 664.273 509.526 630.057C680.702 540.21 782.219 760.506 930.15 795.594C999.682 812.086 1040.41 774.28 1102.33 754.761C1177.27 731.139 1243.88 770.381 1306 809.239" stroke="url(#paint0_linear_139_6387)" stroke-miterlimit="10"/>
<path d="M-616.154 728.471C-434.034 678.251 -279.363 727.856 -106.776 784.642C-21.1754 812.804 64.1951 833.887 153.41 810.804C289.141 775.691 377.613 668.838 491.688 596.842C676.935 479.961 759.486 740.244 921.103 773.382C991.07 787.745 1030.64 743.091 1092.48 721.52C1170.81 694.205 1243.11 743.399 1306.03 785.437" stroke="url(#paint1_linear_139_6387)" stroke-miterlimit="10"/>
<path d="M-616.154 693.05C-439.442 635.931 -303.762 700.129 -141.478 763.764C-53.8525 798.107 34.7729 825.962 128.14 797.569C266.562 755.479 356.777 640.83 471.21 561.088C665.761 425.535 729.628 715.185 896.73 749.247C967.85 763.738 1011.75 714.185 1072.65 689.998C1158.66 655.834 1237.62 713.98 1306.03 761.763" stroke="url(#paint2_linear_139_6387)" stroke-miterlimit="10"/>
<path d="M-616.154 658.271C-536.986 628.082 -459.714 621.131 -377.83 645.498C-302.224 667.992 -237.305 713.415 -165.954 745.553C-81.6856 783.513 4.88943 816.805 97.1028 786.565C243.573 738.525 331.737 608.076 451.271 521.538C644.822 381.393 701.129 680.123 860.029 720.417C940.479 740.808 987.098 681.688 1055.5 654.654C1147.95 618.105 1234.32 686.33 1306.03 738.013" stroke="url(#paint3_linear_139_6387)" stroke-miterlimit="10"/>
<path d="M-616.154 624.697C-544.905 592.405 -473.913 582.351 -398.666 607.589C-324.547 632.443 -264.344 684.766 -196.068 720.982C-116.644 763.123 -34.9126 805.417 56.4807 778.435C209.717 733.242 305.903 586.737 424.822 491.939C627.599 330.275 661.25 655.372 827.377 692.794C912.62 712.005 965.697 643.446 1038.89 616.72C1137.36 580.786 1231.8 659.297 1306 714.236" stroke="url(#paint4_linear_139_6387)" stroke-miterlimit="10"/>
<path d="M-616.154 592.815C-451.488 504.327 -352.585 609 -218.468 693.589C-142.298 741.629 -60.2854 797.21 33.0557 766.277C184.216 716.185 283.657 565.576 398.244 465.418C472.21 400.784 543.023 385.779 606.378 467.547C661.327 538.44 696.618 640.547 794.393 661.092C879.533 678.969 939.658 608.794 1012.7 580.196C1120.19 538.081 1226.6 630.16 1306.03 690.511" stroke="url(#paint5_linear_139_6387)" stroke-miterlimit="10"/>
<path d="M-616.154 563.165C-456.665 462.853 -357.275 567.013 -231.488 661.554C-164.391 711.979 -88.4261 781.821 2.22395 758.147C57.4033 743.732 106.329 702.771 148.464 666.607C229.451 597.124 296.676 515.151 373.564 441.744C447.273 371.364 519.931 343.664 583.133 436.512C630.239 505.712 666.376 612.616 761.075 627.723C851.11 642.086 917.002 564.781 995.965 538.055C1109.86 499.48 1224.68 603.152 1306.03 666.709" stroke="url(#paint6_linear_139_6387)" stroke-miterlimit="10"/>
<path d="M-616.154 536.286C-553.978 491.529 -485.369 463.443 -409.61 490.708C-342.154 514.997 -289.717 571.424 -237.869 618.438C-179.435 671.428 -105.623 765.508 -15.9215 747.015C34.5678 736.602 78.983 697.924 116.709 664.991C199.978 592.277 272.969 508.046 347.832 427.022C417.902 351.153 495.558 296.573 560.912 402.168C604.917 473.241 639.081 585.659 738.88 589.609C827.454 593.123 894.013 522.333 973.847 496.222C1096.3 456.185 1220.53 573.861 1306.05 642.984" stroke="url(#paint7_linear_139_6387)" stroke-miterlimit="10"/>
<path d="M-616.154 511.611C-552.338 461.853 -481.243 428.818 -400.639 457.493C-332.62 481.679 -276.287 536.824 -226.003 586.403C-173.72 637.983 -103.547 739.295 -17.9461 722.008C29.9546 712.338 72.0888 673.583 107.406 642.138C188.163 570.193 260.283 488.169 333.249 408.581C400.064 335.713 478.54 269.283 544.817 374.391C588.181 443.155 621.115 552.906 719.043 554.265C806.849 555.471 880.071 491.682 962.058 469.83C1089.67 435.794 1214.38 547.366 1306.03 618.643" stroke="url(#paint8_linear_139_6387)" stroke-miterlimit="10"/>
<path d="M-616.154 484.116C-545.751 428.689 -470.632 398.885 -384.57 437.359C-313.398 469.189 -251.068 529.412 -195.991 582.735C-146.578 630.596 -85.3506 711.364 -7.43827 686.202C40.1036 670.839 81.4434 629.801 116.914 596.816C188.009 530.72 254.081 459.134 321.152 389.011C385.071 322.145 462.625 257.1 531.336 350.333C580.211 416.66 611.324 522.743 708.894 527.591C795.802 531.9 879.84 474.523 963.621 459.134C1090.33 435.845 1208.17 523.256 1306.05 590.609" stroke="url(#paint9_linear_139_6387)" stroke-miterlimit="10"/>
<path d="M-616.154 453.569C-540.446 395.756 -463.303 370.339 -374.857 415.993C-307.093 450.952 -244.558 507.251 -188.815 558.626C-136.865 606.512 -73.0743 689.024 5.42753 652.5C46.4084 633.443 80.1363 597.15 112.326 566.448C180.038 501.814 244.085 433.28 310.208 367.056C378.612 298.548 456.115 245.429 527.082 336.508C575.931 399.219 611.119 497.941 703.743 502.045C788.959 505.841 873.612 464.982 956.779 451.388C1085.15 430.408 1199.13 495.915 1306.05 559.036" stroke="url(#paint10_linear_139_6387)" stroke-miterlimit="10"/>
<path d="M-616.154 420.533C-528.836 357.489 -445.542 343.228 -352.559 401.886C-285.744 444.027 -223.978 501.121 -164.186 552.598C-114.26 595.585 -58.1069 663.067 11.7579 623.978C49.1764 603.049 80.3157 565.73 110.122 535.542C173.58 471.241 235.372 405.375 300.674 342.92C368.335 278.208 445.786 231.502 517.804 313.27C571.574 374.314 608.813 471.677 701.206 480.5C782.629 488.271 871.357 456.416 951.448 444.002C1079.44 424.175 1192.05 469.445 1306 524.718" stroke="url(#paint11_linear_139_6387)" stroke-miterlimit="10"/>
<path d="M-616.154 385.625C-521.557 321.939 -434.572 315.117 -339.77 381.752C-268.24 432.024 -203.962 495.555 -135.942 550.649C-89.1693 588.506 -37.4242 640.419 21.0357 596.919C59.6843 568.167 91.2337 524.846 123.321 489.554C177.578 429.92 233.193 371.082 292.883 316.861C366.029 250.405 445.351 219.011 519.009 299.112C572.932 357.745 614.246 449.259 702.846 459.186C786.704 468.573 877.38 446.541 960.444 435.127C1082.59 418.353 1191.31 445.669 1306.03 488.169" stroke="url(#paint12_linear_139_6387)" stroke-miterlimit="10"/>
<path d="M-616.154 349.384C-508.307 281.902 -416.632 289.083 -317.627 368.184C-242.508 428.202 -178.487 498.043 -100.19 554.676C-46.4714 593.508 -7.74576 615.437 41.2827 561.319C124.603 469.342 192.084 364.516 289.705 285.211C361.364 227.014 440.199 205.315 511.602 273.053C571.932 330.275 612.529 418.122 699.616 438.744C780.015 457.749 880.917 439 961.751 427.971C1081.05 411.684 1188.72 421.251 1306.05 450.183" stroke="url(#paint13_linear_139_6387)" stroke-miterlimit="10"/>
<path d="M-616.154 312.424C-495.39 241.915 -397.051 264.82 -295.227 355.077C-222.287 419.738 -161.623 494.606 -78.8409 547.725C-18.0743 586.737 13.9108 593.636 55.4812 531.515C121.348 433.101 187.65 332.507 283.605 259.921C361.185 201.211 439.789 188.028 515.6 255.714C578.724 312.09 623.652 402.784 712.918 422.739C792.086 440.436 884.479 432.024 964.288 421.149C1080.16 405.349 1189 398.219 1306.05 411.274" stroke="url(#paint14_linear_139_6387)" stroke-miterlimit="10"/>
<path d="M-616.154 275.336C-484.523 202.622 -381.546 238.453 -277.21 337.944C-203.372 408.35 -142.503 494.35 -51.5972 544.262C15.8842 581.325 39.5655 562.063 71.7556 498.531C122.962 397.501 187.727 295.393 282.58 229.578C362.876 173.844 444.095 172.125 519.521 236.17C585.311 292.059 633.237 380.393 721.376 405.169C910.416 458.314 1116.14 378.88 1306.05 372.288" stroke="url(#paint15_linear_139_6387)" stroke-miterlimit="10"/>
<path d="M-616.154 238.684C-550.672 203.776 -489.111 183.052 -415.837 208.47C-355.225 229.502 -305.581 273.643 -261.115 318.605C-187.764 392.832 -125.05 492.708 -27.3264 536.824C45.9727 569.911 63.3237 525.334 88.0557 463.136C128.37 361.669 189.239 257.715 284.349 198.313C491.637 68.8125 566.448 330.84 731.371 387.651C923.973 454.005 1117.7 370.287 1306.05 333.789" stroke="url(#paint16_linear_139_6387)" stroke-miterlimit="10"/>
<path d="M-616.154 203.058C-547.853 166.893 -484.908 146.733 -410.302 174.203C-347.715 197.235 -297.124 244.301 -251.786 291.982C-180.486 366.953 -106.751 496.735 -0.390223 526.59C74.0622 547.494 85.8004 477.781 104.663 421.662C137.674 323.427 194.57 215.113 289.757 163.148C487.357 55.2699 586.874 297.83 736.061 366.389C931.79 456.339 1121.32 364.106 1306.03 296.445" stroke="url(#paint17_linear_139_6387)" stroke-miterlimit="10"/>
<path d="M-616.154 169.073C-547.186 131.523 -485.062 111.133 -409.148 137.73C-346.203 159.788 -294.766 209.008 -250.017 256.971C-177.41 334.815 -99.5748 482.68 13.3213 504.738C90.0547 519.742 100.819 443.027 117.58 385.42C146.362 286.595 198.184 177.204 297.65 131.241C495.532 39.8037 602.252 272.668 748.209 347.973C824.199 387.164 922.589 407.247 1007.24 393.602C1114.55 376.315 1212.68 312.68 1306.05 261.049" stroke="url(#paint18_linear_139_6387)" stroke-miterlimit="10"/>
<path d="M-616.154 137.269C-542.701 94.769 -471.709 70.2745 -390.388 107.003C-329.365 134.576 -280.952 185.258 -237.203 234.452C-171.644 308.166 -89.0156 463.469 21.2663 475.114C104.279 483.885 114.761 393.166 132.548 331.917C160.048 237.247 209.563 135.756 309.235 99.2319C505.63 27.236 619.192 243.121 760.896 327.48C832.503 370.108 926.101 399.296 1009.86 388.857C1122.06 374.853 1219.17 293.598 1306 228.065" stroke="url(#paint19_linear_139_6387)" stroke-miterlimit="10"/>
<path d="M-616.154 108.26C-546.802 64.0417 -478.526 33.2633 -396.59 66.3758C-330.928 92.9222 -278.645 149.272 -233.538 201.929C-169.055 277.208 -87.9648 431.767 26.5972 434.486C108.277 436.41 123.398 344.382 142.671 282.928C172.478 187.976 219.61 95.8718 324.151 69.0176C524.339 17.5663 635.493 214.959 778.734 309.654C848.855 356.026 942.375 394.269 1027.8 381.932C1139.51 365.773 1229.27 272.848 1306.03 198.313" stroke="url(#paint20_linear_139_6387)" stroke-miterlimit="10"/>
<path d="M-616.154 82.6371C-552.492 36.4438 -486.369 -2.2601 -405.406 24.8762C-342.308 46.0107 -292.613 97.7698 -250.146 146.861C-180.588 227.244 -110.621 370.236 9.11818 379.367C100.153 386.292 123.808 297.753 150.001 227.706C185.728 132.139 235.525 51.2174 344.936 36.4181C538.897 10.1795 650.665 177.076 785.423 282.133C852.981 334.789 944.451 385.215 1032.85 376.597C1150.1 365.157 1236.39 256.048 1306.03 172.408" stroke="url(#paint21_linear_139_6387)" stroke-miterlimit="10"/>
<path d="M-616.154 62.4259C-552.799 18.1819 -487.471 -18.2393 -408.123 7.61462C-346.331 27.7488 -297.149 77.2252 -255.194 124.829C-187.611 201.467 -116.08 348.588 0.224889 352.615C90.1573 355.719 120.938 276.003 153.179 205.93C194.519 116.134 250.467 33.9302 356.572 19.5926C543.741 -5.69706 660.66 150.221 793.496 249.943C858.671 298.856 950.602 348.614 1034.31 346.972C1151.33 344.664 1238.01 233.272 1306.03 151.965" stroke="url(#paint22_linear_139_6387)" stroke-miterlimit="10"/>
<path d="M-616.154 48.6012C-553.799 5.89612 -489.419 -29.5247 -411.634 -5.97922C-351.534 12.2057 -303.07 58.5272 -261.781 103.874C-195.274 176.947 -124.051 322.529 -11.5133 323.222C76.7276 323.76 114.3 253.483 152.82 185.027C199.875 101.412 261.641 21.1827 363.978 7.12726C544.381 -17.6237 666.247 122.213 799.16 215.292C863.694 260.485 954.626 310.91 1034.49 318.041C1150.92 328.428 1239.01 215.933 1306 137.551" stroke="url(#paint23_linear_139_6387)" stroke-miterlimit="10"/>
<path d="M-616.154 40.0346C-556.336 -0.875102 -492.392 -36.2447 -417.683 -17.2646C-353.995 -1.10595 -303.403 47.088 -260.038 93.7429C-194.12 164.662 -128.023 296.393 -17.8949 291.494C65.4252 287.801 107.893 224.5 151.411 162.199C204.847 85.6636 269.356 13.8985 367.208 -0.00304891C544.894 -25.267 669.374 95.6153 807.617 181.846C871.485 221.704 952.524 268.975 1026.11 288.032C1145.38 318.913 1236.21 207.059 1306.03 128.061" stroke="url(#paint24_linear_139_6387)" stroke-miterlimit="10"/>
<path d="M-616.154 35.623C-557.976 -4.67108 -495.39 -40.8101 -421.912 -25.8569C-360.735 -13.3916 -311.015 29.493 -268.393 72.5571C-201.553 140.064 -139.325 261.306 -32.6317 256.561C48.3049 252.97 96.9746 199.672 146.49 142.245C205.821 73.4548 274.302 8.10197 368.386 -5.59444C538.564 -30.3711 668.964 66.2732 808.822 143.168C878.226 181.333 951.217 227.988 1024.08 258.869C1141.38 308.602 1233.6 200.98 1306 122.47" stroke="url(#paint25_linear_139_6387)" stroke-miterlimit="10"/>
<path d="M-616.154 34.2637C-493.75 -52.5828 -387.876 -52.1468 -276.723 50.8327C-208.473 114.057 -150.474 222.576 -47.5221 218.883C30.7747 216.062 85.2108 172.869 140.39 122.162C205.411 62.426 277.044 4.63943 367.387 -8.80048C529.542 -32.9359 666.837 36.9568 807.951 103.259C885.632 139.757 948.475 185.54 1020.83 229.938C1135.08 300.035 1228.34 199.954 1306.05 119.802" stroke="url(#paint26_linear_139_6387)" stroke-miterlimit="10"/>
<path d="M-616.154 34.8536C-502.233 -48.6586 -397.385 -64.8686 -284.565 28.0823C-214.521 85.7919 -160.572 180.333 -61.7975 178.384C102.664 175.152 203.95 13.9499 364.696 -10.3651C518.675 -33.6541 663.326 7.6403 804.952 62.349C891.527 95.7949 946.04 143.168 1016.26 200.954C1126.42 291.597 1220.04 202.929 1306.03 118.879" stroke="url(#paint27_linear_139_6387)" stroke-miterlimit="10"/>
<path d="M-616.154 36.2898C-511.972 -43.1699 -407.944 -76.8209 -294.151 1.89494C-223.799 50.5505 -172.208 131.857 -81.3012 134.986C82.161 140.654 203.797 12.5135 360.672 -11.981C503.811 -34.321 656.79 -21.9327 794.88 19.5156C893.193 49.0372 943.4 102.72 1012.7 174.382C1038.59 201.16 1067.7 229.04 1106.58 233.246C1183.93 241.582 1256.28 164.867 1306.03 118.802" stroke="url(#paint28_linear_139_6387)" stroke-miterlimit="10"/>
<path d="M-616.154 37.4696C-519.225 -39.4252 -415.684 -88.2859 -299.353 -23.9077C-227.387 15.9247 -177.333 83.5347 -91.5016 88.5362C68.1931 97.8467 202.72 12.2057 356.341 -11.6733C494.148 -33.0899 650.306 -50.9414 787.934 -21.3941C893.808 1.33061 941.427 64.7085 1005.6 145.707C1030.18 176.742 1058.01 212.445 1098.64 222.192C1177.11 241.018 1254.54 163.636 1306 118.519" stroke="url(#paint29_linear_139_6387)" stroke-miterlimit="10"/>
<path d="M-616.154 37.2646C-521.557 -40.7075 -416.427 -101.059 -294.638 -49.0433C-228.233 -20.6758 -178.82 31.3141 -104.931 38.547C53.8665 54.1158 198.261 11.8724 353.317 -10.9037C435.022 -22.9073 515.523 -34.8083 596.537 -51.1465C659.507 -63.8426 720.709 -70.4343 784.731 -61.2521C895.346 -45.4012 942.068 33.6994 999.426 119.879C1022.39 154.377 1049.99 197.21 1091.72 210.932C1171.68 237.247 1251.44 162.353 1306.03 116.878" stroke="url(#paint30_linear_139_6387)" stroke-miterlimit="10"/>
<path d="M-616.154 34.5971C-525.043 -42.9133 -419.861 -114.73 -295.33 -81.5146C-229.309 -63.8939 -176.026 -22.9073 -107.417 -14.238C49.0995 5.51145 194.109 9.99998 350.497 -11.8014C433.305 -23.3433 510.935 -40.3484 589.924 -67.7412C650.742 -88.8245 709.099 -106.112 774.3 -101.495C890.399 -93.2873 937.557 0.150873 989.968 90.896C1012.29 129.549 1039.25 179.281 1082.51 198.082C1164.02 233.503 1248 159.07 1306.08 112.979" stroke="url(#paint31_linear_139_6387)" stroke-miterlimit="10"/>
<path d="M-616.154 28.3644C-526.324 -49.8641 -421.553 -129.76 -295.535 -117.654C-227.874 -111.165 -165.954 -79.1549 -98.7802 -69.2545C54.7635 -46.6067 189.829 5.07539 347.55 -14.1868C430.998 -24.395 505.989 -46.1964 581.185 -83.4896C637.825 -111.575 691.8 -139.994 756.693 -140.814C882.839 -142.353 930.483 -32.0896 981.28 65.1703C1003.22 107.183 1029.59 161.84 1074.29 184.36C1157.22 226.167 1244.67 152.53 1306.03 105.67" stroke="url(#paint32_linear_139_6387)" stroke-miterlimit="10"/>
<path d="M-616.154 17.4637C-524.479 -63.3041 -419.426 -148.406 -292.177 -156.819C-223.568 -161.359 -151.345 -140.943 -84.5817 -127.092C65.579 -95.9548 190.598 -1.23421 350.062 -18.4701C432.049 -27.3189 504.451 -54.0192 573.188 -99.0583C628.65 -135.403 679.472 -174.363 748.337 -178.39C877.226 -185.905 924.435 -57.8409 971.464 39.342C993.813 85.484 1019.47 141.296 1065.55 168.611C1148.3 217.652 1243.72 140.167 1306.03 93.9994" stroke="url(#paint33_linear_139_6387)" stroke-miterlimit="10"/>
<path d="M-616.154 0.740791C-459.279 -137.147 -293.946 -243.46 -80.3786 -191.804C71.6531 -155.024 188.752 -11.9809 353.701 -25.4722C437.277 -32.3204 507.68 -65.8945 571.266 -119.064C621.063 -160.692 665.427 -206.347 733.37 -213.708C862.951 -227.738 910.441 -96.5703 954.856 0.484327C979.101 53.4489 1005.35 119.699 1057.96 151.247C1142.79 202.109 1241.31 123.957 1306 76.8661" stroke="url(#paint34_linear_139_6387)" stroke-miterlimit="10"/>
<path d="M-616.154 -21.984C-465.199 -151.048 -271.008 -293.809 -59.8241 -234.612C88.4144 -193.061 200.414 -34.834 363.338 -43.1955C444.812 -47.3762 514.036 -86.4391 571.548 -141.789C617.168 -185.674 657.944 -235.176 725.041 -242.614C849.342 -256.439 899.933 -126.964 943.733 -34.9109C969.952 20.1568 997.426 87.5616 1051.35 121.444C1137.69 175.691 1237.42 101.617 1306 53.8079" stroke="url(#paint35_linear_139_6387)" stroke-miterlimit="10"/>
<path d="M-616.154 -45.7347C-464.661 -169.31 -265.779 -305.761 -57.9275 -254.515C94.8474 -216.863 215.868 -59.8415 381.278 -70.5883C456.243 -75.4615 519.06 -111.908 571.702 -163.308C613.708 -204.321 650.537 -251.052 711.867 -261.081C834.195 -281.087 894.628 -148.355 942.093 -60.3288C969.363 -9.80085 998.939 48.7551 1048.43 81.3546C1134.98 138.372 1232.37 75.2502 1306.03 27.8001" stroke="url(#paint36_linear_139_6387)" stroke-miterlimit="10"/>
<path d="M-616.154 -69.4854C-461.79 -188.701 -253.221 -320.535 -46.907 -268.006C103.1 -229.815 231.502 -86.4905 393.375 -95.288C462.394 -99.0327 522.827 -135.839 571.087 -182.673C609.761 -220.197 644.181 -264.903 699.745 -276.676C820.15 -302.17 889.4 -168.412 941.837 -84.9002C973.361 -34.7057 1006.32 20.5415 1060.45 48.9347C1146.1 93.8455 1231.29 44.2666 1306.03 -0.131314" stroke="url(#paint37_linear_139_6387)" stroke-miterlimit="10"/>
<path d="M-616.154 -93.236C-456.844 -208.732 -243.2 -330.025 -37.091 -278.933C111.481 -242.101 245.341 -109.395 404.729 -120.295C468.929 -124.681 523.801 -156.973 569.677 -200.14C608.249 -236.433 642.9 -280.677 698.002 -290.859C812.487 -312.045 887.068 -186.443 942.939 -108.625C975.001 -63.9709 1008.99 -18.4188 1057.86 8.64058C1142.9 55.6803 1228.6 12.6161 1306.03 -29.6529" stroke="url(#paint38_linear_139_6387)" stroke-miterlimit="10"/>
<path d="M-616.154 -116.987C-455.742 -225.096 -248.762 -329.461 -47.6246 -291.526C108.046 -262.158 248.724 -131.966 412.212 -143.431C474.209 -147.791 527.005 -179.441 572.163 -220.12C609.095 -253.412 642.643 -291.783 693.824 -301.452C799.775 -321.484 878.661 -213.298 936.89 -142.61C975.001 -96.3139 1016.65 -45.5038 1073.67 -21.8301C1154.3 11.6415 1233.68 -24.1128 1306.05 -60.3801" stroke="url(#paint39_linear_139_6387)" stroke-miterlimit="10"/>
</g>
<defs>
<linearGradient id="paint0_linear_139_6387" x1="344.923" y1="608.685" x2="344.923" y2="832.813" gradientUnits="userSpaceOnUse">
<stop stop-color="#333333"/>
<stop offset="1" stop-color="#333333" stop-opacity="0"/>
</linearGradient>
<linearGradient id="paint1_linear_139_6387" x1="344.936" y1="566.861" x2="344.936" y2="820.655" gradientUnits="userSpaceOnUse">
<stop stop-color="#333333"/>
<stop offset="1" stop-color="#333333" stop-opacity="0"/>
</linearGradient>
<linearGradient id="paint2_linear_139_6387" x1="344.936" y1="525.197" x2="344.936" y2="809.293" gradientUnits="userSpaceOnUse">
<stop stop-color="#333333"/>
<stop offset="1" stop-color="#333333" stop-opacity="0"/>
</linearGradient>
<linearGradient id="paint3_linear_139_6387" x1="344.936" y1="484.397" x2="344.936" y2="798.325" gradientUnits="userSpaceOnUse">
<stop stop-color="#333333"/>
<stop offset="1" stop-color="#333333" stop-opacity="0"/>
</linearGradient>
<linearGradient id="paint4_linear_139_6387" x1="344.923" y1="447.147" x2="344.923" y2="786.924" gradientUnits="userSpaceOnUse">
<stop stop-color="#333333"/>
<stop offset="1" stop-color="#333333" stop-opacity="0"/>
</linearGradient>
<linearGradient id="paint5_linear_139_6387" x1="344.936" y1="411.476" x2="344.936" y2="775.208" gradientUnits="userSpaceOnUse">
<stop stop-color="#333333"/>
<stop offset="1" stop-color="#333333" stop-opacity="0"/>
</linearGradient>
<linearGradient id="paint6_linear_139_6387" x1="344.936" y1="377.304" x2="344.936" y2="762.902" gradientUnits="userSpaceOnUse">
<stop stop-color="#333333"/>
<stop offset="1" stop-color="#333333" stop-opacity="0"/>
</linearGradient>
<linearGradient id="paint7_linear_139_6387" x1="344.949" y1="343.449" x2="344.949" y2="749.387" gradientUnits="userSpaceOnUse">
<stop stop-color="#333333"/>
<stop offset="1" stop-color="#333333" stop-opacity="0"/>
</linearGradient>
<linearGradient id="paint8_linear_139_6387" x1="344.936" y1="319.805" x2="344.936" y2="723.968" gradientUnits="userSpaceOnUse">
<stop stop-color="#333333"/>
<stop offset="1" stop-color="#333333" stop-opacity="0"/>
</linearGradient>
<linearGradient id="paint9_linear_139_6387" x1="344.949" y1="303.878" x2="344.949" y2="690.95" gradientUnits="userSpaceOnUse">
<stop stop-color="#333333"/>
<stop offset="1" stop-color="#333333" stop-opacity="0"/>
</linearGradient>
<linearGradient id="paint10_linear_139_6387" x1="344.949" y1="288.077" x2="344.949" y2="661.564" gradientUnits="userSpaceOnUse">
<stop stop-color="#333333"/>
<stop offset="1" stop-color="#333333" stop-opacity="0"/>
</linearGradient>
<linearGradient id="paint11_linear_139_6387" x1="344.923" y1="269.648" x2="344.923" y2="635.719" gradientUnits="userSpaceOnUse">
<stop stop-color="#333333"/>
<stop offset="1" stop-color="#333333" stop-opacity="0"/>
</linearGradient>
<linearGradient id="paint12_linear_139_6387" x1="344.936" y1="251.525" x2="344.936" y2="613.442" gradientUnits="userSpaceOnUse">
<stop stop-color="#333333"/>
<stop offset="1" stop-color="#333333" stop-opacity="0"/>
</linearGradient>
<linearGradient id="paint13_linear_139_6387" x1="344.949" y1="231.068" x2="344.949" y2="593.652" gradientUnits="userSpaceOnUse">
<stop stop-color="#333333"/>
<stop offset="1" stop-color="#333333" stop-opacity="0"/>
</linearGradient>
<linearGradient id="paint14_linear_139_6387" x1="344.949" y1="210.196" x2="344.949" y2="577.625" gradientUnits="userSpaceOnUse">
<stop stop-color="#333333"/>
<stop offset="1" stop-color="#333333" stop-opacity="0"/>
</linearGradient>
<linearGradient id="paint15_linear_139_6387" x1="344.949" y1="187.938" x2="344.949" y2="563.007" gradientUnits="userSpaceOnUse">
<stop stop-color="#333333"/>
<stop offset="1" stop-color="#333333" stop-opacity="0"/>
</linearGradient>
<linearGradient id="paint16_linear_139_6387" x1="344.949" y1="162.793" x2="344.949" y2="548.063" gradientUnits="userSpaceOnUse">
<stop stop-color="#333333"/>
<stop offset="1" stop-color="#333333" stop-opacity="0"/>
</linearGradient>
<linearGradient id="paint17_linear_139_6387" x1="344.936" y1="135.893" x2="344.936" y2="530.385" gradientUnits="userSpaceOnUse">
<stop stop-color="#333333"/>
<stop offset="1" stop-color="#333333" stop-opacity="0"/>
</linearGradient>
<linearGradient id="paint18_linear_139_6387" x1="344.949" y1="110.284" x2="344.949" y2="506.644" gradientUnits="userSpaceOnUse">
<stop stop-color="#333333"/>
<stop offset="1" stop-color="#333333" stop-opacity="0"/>
</linearGradient>
<linearGradient id="paint19_linear_139_6387" x1="344.923" y1="84.7697" x2="344.923" y2="475.705" gradientUnits="userSpaceOnUse">
<stop stop-color="#333333"/>
<stop offset="1" stop-color="#333333" stop-opacity="0"/>
</linearGradient>
<linearGradient id="paint20_linear_139_6387" x1="344.936" y1="52.4558" x2="344.936" y2="434.516" gradientUnits="userSpaceOnUse">
<stop stop-color="#333333"/>
<stop offset="1" stop-color="#333333" stop-opacity="0"/>
</linearGradient>
<linearGradient id="paint21_linear_139_6387" x1="344.936" y1="15.891" x2="344.936" y2="379.749" gradientUnits="userSpaceOnUse">
<stop stop-color="#333333"/>
<stop offset="1" stop-color="#333333" stop-opacity="0"/>
</linearGradient>
<linearGradient id="paint22_linear_139_6387" x1="344.936" y1="-1.00415" x2="344.936" y2="352.703" gradientUnits="userSpaceOnUse">
<stop stop-color="#333333"/>
<stop offset="1" stop-color="#333333" stop-opacity="0"/>
</linearGradient>
<linearGradient id="paint23_linear_139_6387" x1="344.923" y1="-13.5078" x2="344.923" y2="323.225" gradientUnits="userSpaceOnUse">
<stop stop-color="#333333"/>
<stop offset="1" stop-color="#333333" stop-opacity="0"/>
</linearGradient>
<linearGradient id="paint24_linear_139_6387" x1="344.936" y1="-22.5321" x2="344.936" y2="293.291" gradientUnits="userSpaceOnUse">
<stop stop-color="#333333"/>
<stop offset="1" stop-color="#333333" stop-opacity="0"/>
</linearGradient>
<linearGradient id="paint25_linear_139_6387" x1="344.923" y1="-29.3035" x2="344.923" y2="271.522" gradientUnits="userSpaceOnUse">
<stop stop-color="#333333"/>
<stop offset="1" stop-color="#333333" stop-opacity="0"/>
</linearGradient>
<linearGradient id="paint26_linear_139_6387" x1="344.949" y1="-28.7795" x2="344.949" y2="253.632" gradientUnits="userSpaceOnUse">
<stop stop-color="#333333"/>
<stop offset="1" stop-color="#333333" stop-opacity="0"/>
</linearGradient>
<linearGradient id="paint27_linear_139_6387" x1="344.936" y1="-34.9849" x2="344.936" y2="239.086" gradientUnits="userSpaceOnUse">
<stop stop-color="#333333"/>
<stop offset="1" stop-color="#333333" stop-opacity="0"/>
</linearGradient>
<linearGradient id="paint28_linear_139_6387" x1="344.936" y1="-42.8901" x2="344.936" y2="233.873" gradientUnits="userSpaceOnUse">
<stop stop-color="#333333"/>
<stop offset="1" stop-color="#333333" stop-opacity="0"/>
</linearGradient>
<linearGradient id="paint29_linear_139_6387" x1="344.923" y1="-53.7192" x2="344.923" y2="225.088" gradientUnits="userSpaceOnUse">
<stop stop-color="#333333"/>
<stop offset="1" stop-color="#333333" stop-opacity="0"/>
</linearGradient>
<linearGradient id="paint30_linear_139_6387" x1="344.936" y1="-68.4927" x2="344.936" y2="216.394" gradientUnits="userSpaceOnUse">
<stop stop-color="#333333"/>
<stop offset="1" stop-color="#333333" stop-opacity="0"/>
</linearGradient>
<linearGradient id="paint31_linear_139_6387" x1="344.961" y1="-102.247" x2="344.961" y2="207.338" gradientUnits="userSpaceOnUse">
<stop stop-color="#333333"/>
<stop offset="1" stop-color="#333333" stop-opacity="0"/>
</linearGradient>
<linearGradient id="paint32_linear_139_6387" x1="344.936" y1="-140.83" x2="344.936" y2="196.744" gradientUnits="userSpaceOnUse">
<stop stop-color="#333333"/>
<stop offset="1" stop-color="#333333" stop-opacity="0"/>
</linearGradient>
<linearGradient id="paint33_linear_139_6387" x1="344.936" y1="-178.706" x2="344.936" y2="184.296" gradientUnits="userSpaceOnUse">
<stop stop-color="#333333"/>
<stop offset="1" stop-color="#333333" stop-opacity="0"/>
</linearGradient>
<linearGradient id="paint34_linear_139_6387" x1="344.923" y1="-214.746" x2="344.923" y2="167.815" gradientUnits="userSpaceOnUse">
<stop stop-color="#333333"/>
<stop offset="1" stop-color="#333333" stop-opacity="0"/>
</linearGradient>
<linearGradient id="paint35_linear_139_6387" x1="344.923" y1="-248.399" x2="344.923" y2="140.485" gradientUnits="userSpaceOnUse">
<stop stop-color="#333333"/>
<stop offset="1" stop-color="#333333" stop-opacity="0"/>
</linearGradient>
<linearGradient id="paint36_linear_139_6387" x1="344.936" y1="-265.585" x2="344.936" y2="103.975" gradientUnits="userSpaceOnUse">
<stop stop-color="#333333"/>
<stop offset="1" stop-color="#333333" stop-opacity="0"/>
</linearGradient>
<linearGradient id="paint37_linear_139_6387" x1="344.936" y1="-279.878" x2="344.936" y2="66.6241" gradientUnits="userSpaceOnUse">
<stop stop-color="#333333"/>
<stop offset="1" stop-color="#333333" stop-opacity="0"/>
</linearGradient>
<linearGradient id="paint38_linear_139_6387" x1="344.936" y1="-293.231" x2="344.936" y2="29.1187" gradientUnits="userSpaceOnUse">
<stop stop-color="#333333"/>
<stop offset="1" stop-color="#333333" stop-opacity="0"/>
</linearGradient>
<linearGradient id="paint39_linear_139_6387" x1="344.949" y1="-303.885" x2="344.949" y2="-8.4874" gradientUnits="userSpaceOnUse">
<stop stop-color="#333333"/>
<stop offset="1" stop-color="#333333" stop-opacity="0"/>
</linearGradient>
<clipPath id="clip0_139_6387">
<rect width="1924" height="1286" fill="white" transform="translate(-617 -333)"/>
</clipPath>
</defs>
</svg>
